name Walk9.mot
datacolumns 19
datarows 20
range 2.59500000 2.69000000
endheader

                time	   L_ground_force_vx	   L_ground_force_vy	   L_ground_force_vz	   L_ground_force_px	   L_ground_force_py	   L_ground_force_pz	   R_ground_force_vx	   R_ground_force_vy	   R_ground_force_vz	   R_ground_force_px	   R_ground_force_py	   R_ground_force_pz	   L_ground_torque_x	   L_ground_torque_y	   L_ground_torque_z	   R_ground_torque_x	   R_ground_torque_y	   R_ground_torque_z	
          2.59500000	          0.00000000	          0.00000000	          0.00000000	         -0.00000000	          0.00000000	         -0.00000000	         15.11459529	        128.12261809	          3.67402977	          0.39153310	          0.00000000	          0.11154167	          0.00000000	          0.00000000	          0.00000000	          0.00000000	         -4.50086586	          0.00000000	
          2.60000000	          0.00000000	          0.00000000	          0.00000000	         -0.00000000	          0.00000000	         -0.00000000	          9.49532087	         99.79662292	          3.43568787	          0.38135893	          0.00000000	          0.10549332	          0.00000000	          0.00000000	          0.00000000	          0.00000000	         -3.47755539	          0.00000000	
          2.60500000	          0.00000000	          0.00000000	          0.00000000	         -0.00000000	          0.00000000	         -0.00000000	          4.71644521	         75.60430338	          3.07383684	          0.36508920	          0.00000000	          0.09815852	          0.00000000	          0.00000000	          0.00000000	          0.00000000	         -2.55602478	          0.00000000	
          2.61000000	          0.00000000	          0.00000000	          0.00000000	         -0.00000000	          0.00000000	         -0.00000000	          0.90877114	         55.35892644	          2.63781008	          0.34181180	          0.00000000	          0.08946094	          0.00000000	          0.00000000	          0.00000000	          0.00000000	         -1.76151100	          0.00000000	
          2.61500000	          0.00000000	          0.00000000	          0.00000000	         -0.00000000	          0.00000000	         -0.00000000	         -1.87089255	         38.74387088	          2.16819967	          0.31109827	          0.00000000	          0.07941091	          0.00000000	          0.00000000	          0.00000000	          0.00000000	         -1.10878686	          0.00000000	
          2.62000000	          0.00000000	          0.00000000	          0.00000000	         -0.00000000	          0.00000000	         -0.00000000	         -3.65251816	         25.38767756	          1.70145420	          0.27331651	          0.00000000	          0.06817570	          0.00000000	          0.00000000	          0.00000000	          0.00000000	         -0.60026888	          0.00000000	
          2.62500000	          0.00000000	          0.00000000	          0.00000000	         -0.00000000	          0.00000000	         -0.00000000	         -4.55724638	         14.93045138	          1.26841102	          0.23002649	          0.00000000	          0.05616265	          0.00000000	          0.00000000	          0.00000000	          0.00000000	         -0.22614417	          0.00000000	
          2.63000000	          0.00000000	          0.00000000	          0.00000000	         -0.00000000	          0.00000000	         -0.00000000	         -4.78313830	          7.05683831	          0.89038330	          0.18444296	          0.00000000	          0.04410242	          0.00000000	          0.00000000	          0.00000000	          0.00000000	          0.03169478	          0.00000000	
          2.63500000	         -0.00000000	          0.00000000	          0.00000000	         -0.00000000	          0.00000000	         -0.00000000	         -4.54974522	          1.44960628	          0.57754241	          0.14062656	          0.00000000	          0.03288107	          0.00000000	          0.00000000	          0.00000000	          0.00000000	          0.19453529	          0.00000000	
          2.64000000	         -0.00000000	         -0.00000000	          0.00000000	         -0.00000000	          0.00000000	         -0.00000000	         -4.04024492	         -2.26084933	          0.33124699	          0.10140609	          0.00000000	          0.02308454	          0.00000000	          0.00000000	          0.00000000	          0.00000000	          0.28357637	          0.00000000	
          2.64500000	         -0.00000000	         -0.00000000	          0.00000000	         -0.00000000	          0.00000000	         -0.00000000	         -3.39397773	         -4.46148679	          0.14710487	          0.06823476	          0.00000000	          0.01497651	          0.00000000	         -0.00000000	          0.00000000	          0.00000000	          0.31824922	          0.00000000	
          2.65000000	         -0.00000000	         -0.00000000	          0.00000000	         -0.00000000	          0.00000000	         -0.00000000	         -2.71111650	         -5.51986330	          0.01738389	          0.04156609	          0.00000000	          0.00859252	          0.00000000	         -0.00000000	          0.00000000	          0.00000000	          0.31531459	          0.00000000	
          2.65500000	         -0.00000000	         -0.00000000	          0.00000000	         -0.00000000	          0.00000000	         -0.00000000	         -2.05879429	         -5.76202521	         -0.06717853	          0.02117661	          0.00000000	          0.00381903	          0.00000000	         -0.00000000	          0.00000000	          0.00000000	          0.28849509	          0.00000000	
          2.66000000	         -0.00000000	         -0.00000000	         -0.00000000	          0.00000000	          0.00000000	         -0.00000000	         -1.47764695	         -5.46161243	         -0.11609375	          0.00642642	          0.00000000	          0.00045585	          0.00000000	         -0.00000000	          0.00000000	          0.00000000	          0.24847979	          0.00000000	
          2.66500000	         -0.00000000	         -0.00000000	         -0.00000000	          0.00000000	          0.00000000	          0.00000000	         -0.98810442	         -4.83701602	         -0.13828053	         -0.00354084	          0.00000000	         -0.00173695	          0.00000000	         -0.00000000	          0.00000000	          0.00000000	          0.20316701	          0.00000000	
          2.67000000	         -0.00000000	         -0.00000000	         -0.00000000	          0.00000000	          0.00000000	          0.00000000	         -0.59602316	         -4.05392497	         -0.14157216	         -0.00965262	          0.00000000	         -0.00300578	          0.00000000	         -0.00000000	          0.00000000	          0.00000000	          0.15804075	          0.00000000	
          2.67500000	         -0.00000000	         -0.00000000	         -0.00000000	          0.00000000	          0.00000000	          0.00000000	         -0.29745082	         -3.23112740	         -0.13248637	         -0.01280858	          0.00000000	         -0.00358173	          0.00000000	         -0.00000000	          0.00000000	          0.00000000	          0.11660304	          0.00000000	
          2.68000000	         -0.00000000	         -0.00000000	         -0.00000000	          0.00000000	          0.00000000	          0.00000000	         -0.08245740	         -2.44794014	         -0.11618176	         -0.01381943	          0.00000000	         -0.00366781	          0.00000000	         -0.00000000	          0.00000000	          0.00000000	          0.08080795	          0.00000000	
          2.68500000	         -0.00000000	         -0.00000000	         -0.00000000	          0.00000000	          0.00000000	          0.00000000	          0.06193510	         -1.75209486	         -0.09653736	         -0.01337472	          0.00000000	         -0.00343293	          0.00000000	         -0.00000000	          0.00000000	          0.00000000	          0.05146232	          0.00000000	
          2.69000000	         -0.00000000	         -0.00000000	         -0.00000000	          0.00000000	          0.00000000	          0.00000000	          0.14963289	         -1.16729325	         -0.07630485	         -0.01203175	          0.00000000	         -0.00301080	          0.00000000	         -0.00000000	          0.00000000	          0.00000000	          0.02857348	          0.00000000	
